<?xml version="1.0" encoding="UTF-8" standalone="no"?>
<svg
   xmlns:dc="http://purl.org/dc/elements/1.1/"
   xmlns:cc="http://creativecommons.org/ns#"
   xmlns:rdf="http://www.w3.org/1999/02/22-rdf-syntax-ns#"
   xmlns:svg="http://www.w3.org/2000/svg"
   xmlns="http://www.w3.org/2000/svg"
   xmlns:sodipodi="http://sodipodi.sourceforge.net/DTD/sodipodi-0.dtd"
   xmlns:inkscape="http://www.inkscape.org/namespaces/inkscape"
   width="24px"
   height="24px"
   viewBox="0 0 24 24"
   version="1.1"
   id="svg8"
   sodipodi:docname="checkbox-multiple.svg"
   inkscape:version="0.92.5 (2060ec1f9f, 2020-04-08)"
   inkscape:export-filename="/home/john/WWW/dolibarr/htdocs/custom/massaction/img/object_massaction.png"
   inkscape:export-xdpi="96"
   inkscape:export-ydpi="96">
  <metadata
     id="metadata14">
    <rdf:RDF>
      <cc:Work
         rdf:about="">
        <dc:format>image/svg+xml</dc:format>
        <dc:type
           rdf:resource="http://purl.org/dc/dcmitype/StillImage" />
      </cc:Work>
    </rdf:RDF>
  </metadata>
  <defs
     id="defs12" />
  <sodipodi:namedview
     pagecolor="#505050"
     bordercolor="#ffffff"
     borderopacity="1"
     objecttolerance="10"
     gridtolerance="10"
     guidetolerance="10"
     inkscape:pageopacity="0"
     inkscape:pageshadow="2"
     inkscape:window-width="1920"
     inkscape:window-height="1011"
     id="namedview10"
     showgrid="false"
     inkscape:zoom="9.8333333"
     inkscape:cx="-34.881356"
     inkscape:cy="11.18644"
     inkscape:window-x="1920"
     inkscape:window-y="0"
     inkscape:window-maximized="1"
     inkscape:current-layer="svg8" />
  <path
     style="fill:none"
     inkscape:connector-curvature="0"
     id="path2"
     d="M 0,0 H 24 V 24 H 0 Z" />
  <path
     inkscape:connector-curvature="0"
     id="path4"
     d="M 7,7 V 3 A 1,1 0 0 1 8,2 h 13 a 1,1 0 0 1 1,1 v 13 a 1,1 0 0 1 -1,1 h -4 v 3.993 C 17,21.549 16.551,22 15.993,22 H 3.007 A 1.006,1.006 0 0 1 2,20.993 L 2.003,8.007 C 2.003,7.451 2.452,7 3.01,7 Z m 2,0 h 6.993 C 16.549,7 17,7.449 17,8.007 V 15 h 3 V 4 H 9 Z M 8.503,18 14.159,12.343 12.745,10.929 8.503,15.172 6.38,13.05 4.966,14.464 Z"
     style="fill:#00384e;fill-opacity:1" />
</svg>
